<?xml version="1.0" encoding="utf-8"?>
<!-- Generator: Adobe Illustrator 23.0.3, SVG Export Plug-In . SVG Version: 6.00 Build 0)  -->
<svg version="1.1" id="Lag_1" xmlns="http://www.w3.org/2000/svg" xmlns:xlink="http://www.w3.org/1999/xlink" x="0px" y="0px"
	 viewBox="0 0 16 16" style="enable-background:new 0 0 16 16;" xml:space="preserve">
<style type="text/css">
	.st0{fill:#0052FF;}
</style>
<g>
	<g>
		<path class="st0" d="M8,1.3c1,0,1.8,0.9,1.8,1.9C9.8,4.3,9,5.2,8,5.2c-1,0-1.8-0.9-1.8-1.9C6.2,2.2,7,1.3,8,1.3"/>
		<path class="st0" d="M3.8,8.6c0,1.1-0.8,1.9-1.8,1.9S0.1,9.7,0.1,8.6c0-1.1,0.8-1.9,1.8-1.9C3,6.7,3.8,7.5,3.8,8.6"/>
		<path class="st0" d="M9.9,8.1c0,1.1-0.8,2-1.9,2c-1,0-1.9-0.9-1.9-2c0-1.1,0.8-2,1.9-2C9,6.1,9.9,7,9.9,8.1"/>
		<path class="st0" d="M15.9,8.6c0,1.1-0.8,2-1.9,2c-1,0-1.9-0.9-1.9-2c0-1.1,0.8-2,1.9-2C15.1,6.6,15.9,7.5,15.9,8.6"/>
		<path class="st0" d="M9.9,12.7c0,1.1-0.8,2-1.9,2c-1,0-1.9-0.9-1.9-2c0-1.1,0.8-2,1.9-2C9,10.7,9.9,11.6,9.9,12.7"/>
		<path class="st0" d="M14.4,13c0,1.1-0.8,2-1.9,2c-1,0-1.9-0.9-1.9-2c0-1.1,0.9-2,1.9-2C13.6,11,14.4,11.9,14.4,13"/>
		<path class="st0" d="M3.5,11c1,0,1.8,0.9,1.8,1.9c0,1.1-0.8,1.9-1.8,1.9c-1,0-1.8-0.9-1.8-1.9C1.7,11.9,2.5,11,3.5,11"/>
	</g>
</g>
</svg>
