<?xml version="1.0" encoding="utf-8"?>
<!-- Generator: Adobe Illustrator 23.0.3, SVG Export Plug-In . SVG Version: 6.00 Build 0)  -->
<svg version="1.1" xmlns="http://www.w3.org/2000/svg" xmlns:xlink="http://www.w3.org/1999/xlink" x="0px" y="0px"
	 viewBox="0 0 285.5 32.8" style="enable-background:new 0 0 285.5 32.8;" xml:space="preserve">
<style type="text/css">
	.st0{display:none;fill:#FFFFFF;}
	.st1{fill:#0052FF;}
	.st2{fill:#FFFFFF;}
	.st3{display:none;}
	.st4{display:inline;}
	.st5{font-family:'IBMPlexSans-Light';}
	.st6{font-size:179.4056px;}
	.st7{fill:#666666;}
</style>
<g id="små">
	<rect x="-543.2" y="-153" class="st0" width="157.6" height="54.6"/>
	<g id="Lag_3">
		<g>
			<g>
				<path class="st1" d="M15.7,0.9c1.9,0,3.5,1.6,3.5,3.7c0,2-1.5,3.7-3.5,3.7c-1.9,0-3.5-1.6-3.5-3.7C12.3,2.5,13.8,0.9,15.7,0.9"
					/>
				<path class="st1" d="M7.7,14.6c0,2-1.5,3.6-3.4,3.6s-3.4-1.6-3.4-3.6c0-2,1.5-3.6,3.4-3.6C6.2,11,7.7,12.6,7.7,14.6"/>
				<path class="st1" d="M19.2,13.6c0,2.1-1.6,3.7-3.5,3.7c-2,0-3.5-1.7-3.5-3.7c0-2.1,1.6-3.7,3.5-3.7
					C17.6,9.9,19.2,11.5,19.2,13.6"/>
				<path class="st1" d="M30.6,14.6c0,2.1-1.6,3.7-3.5,3.7c-2,0-3.5-1.7-3.5-3.7c0-2.1,1.6-3.7,3.5-3.7C29,10.8,30.6,12.5,30.6,14.6
					"/>
				<path class="st1" d="M19.2,22.3c0,2.1-1.6,3.7-3.5,3.7c-2,0-3.5-1.7-3.5-3.7c0-2.1,1.6-3.7,3.5-3.7
					C17.6,18.6,19.2,20.3,19.2,22.3"/>
				<path class="st1" d="M27.8,22.8c0,2.1-1.6,3.8-3.6,3.8c-2,0-3.6-1.7-3.6-3.8c0-2.1,1.6-3.8,3.6-3.8
					C26.2,19.1,27.8,20.7,27.8,22.8"/>
				<path class="st1" d="M7.2,19.2c1.9,0,3.4,1.6,3.4,3.6c0,2-1.5,3.6-3.4,3.6c-1.9,0-3.4-1.6-3.4-3.6C3.7,20.8,5.3,19.2,7.2,19.2"
					/>
			</g>
		</g>
		<g>
			<path class="st2" d="M41.5,26l-5.1-15.2h3.7l2.1,6.6l1.5,5.4h0.2l1.5-5.4l2.1-6.6H51L45.9,26H41.5z"/>
			<path class="st2" d="M52.4,6.7V6.1c0-1.1,0.6-1.9,2.2-1.9c1.5,0,2.2,0.8,2.2,1.9v0.6c0,1.1-0.7,1.9-2.2,1.9
				C53.1,8.5,52.4,7.8,52.4,6.7z M52.7,10.8h3.7V26h-3.7V10.8z"/>
			<path class="st2" d="M60.1,26V10.8h3.7v3.1h0.1c0.4-1.6,1.6-3.1,4-3.1h0.8v3.5h-1.2c-2.5,0-3.8,0.7-3.8,2.4V26H60.1z"/>
			<path class="st2" d="M70.8,4.4h3.7v13h0.1l2-2.7l3.4-3.9h4.2l-5.2,5.9l5.8,9.3h-4.4l-3.9-6.8l-2,2.2V26h-3.7V4.4z"/>
			<path class="st2" d="M85.3,23.5l2.3-2.2c1.1,1.3,2.4,2.1,4.2,2.1c1.8,0,2.5-0.7,2.5-1.7c0-0.9-0.5-1.4-1.9-1.6l-1.5-0.2
				c-3.3-0.4-5.1-1.8-5.1-4.6c0-2.9,2.3-4.8,5.8-4.8c3,0,4.5,0.9,5.9,2.4L95.3,15c-0.9-0.9-2.2-1.6-3.6-1.6c-1.6,0-2.3,0.6-2.3,1.6
				c0,1,0.6,1.5,2,1.7l1.5,0.2c3.3,0.5,4.9,2,4.9,4.5c0,2.9-2.5,5-6.3,5C88.7,26.3,86.8,25.3,85.3,23.5z"/>
			<path class="st2" d="M99.1,18.3c0-4.9,2.7-7.9,7.1-7.9c4.4,0,7.1,3.1,7.1,7.9c0,4.9-2.7,8-7.1,8C101.8,26.3,99.1,23.2,99.1,18.3z
				 M109.3,19.8v-2.8c0-2.3-1.2-3.5-3.2-3.5c-1.9,0-3.1,1.3-3.1,3.5v2.8c0,2.3,1.2,3.6,3.1,3.6C108.1,23.3,109.3,22.1,109.3,19.8z"
				/>
			<path class="st2" d="M115.1,26V10.8h3.7v2.5h0.1c0.6-1.6,1.8-2.9,4.1-2.9c2.1,0,3.7,1,4.4,3.1h0.1c0.6-1.7,2.2-3.1,4.7-3.1
				c3,0,4.7,2.2,4.7,5.9V26h-3.7v-9.2c0-2.2-0.8-3.3-2.4-3.3c-1.5,0-2.8,0.8-2.8,2.4V26h-3.7v-9.2c0-2.2-0.8-3.3-2.4-3.3
				c-1.4,0-2.8,0.8-2.8,2.4V26H115.1z"/>
			<path class="st2" d="M139.8,4.4h3.7v8.9h0.1c0.6-1.6,1.9-2.9,4.3-2.9c3.1,0,4.9,2.2,4.9,5.9V26h-3.7v-9.2c0-2.2-0.7-3.3-2.5-3.3
				c-1.5,0-3,0.8-3,2.4V26h-3.7V4.4z"/>
			<path class="st2" d="M155.2,18.3c0-4.8,2.6-7.9,7.1-7.9c4.8,0,6.9,3.5,6.9,7.7v1.2h-10.1v0.4c0,2.2,1.3,3.7,3.7,3.7
				c1.8,0,2.9-0.9,3.9-2.1l2,2.2c-1.3,1.7-3.5,2.8-6.3,2.8C157.9,26.3,155.2,23.2,155.2,18.3z M159.1,16.8V17h6.2v-0.3
				c0-2.1-1.1-3.5-3-3.5C160.3,13.2,159.1,14.7,159.1,16.8z"/>
			<path class="st2" d="M181.2,23.4H181c-0.6,1.7-2.2,2.9-4.2,2.9c-3.8,0-5.9-2.9-5.9-8c0-5.1,2.1-7.9,5.9-7.9c2,0,3.7,1.1,4.2,2.9
				h0.1V4.4h3.7V26h-3.7V23.4z M181.2,20.8v-4.8c0-1.5-1.4-2.4-3.1-2.4c-1.9,0-3.2,1.4-3.2,3.6v2.6c0,2.2,1.3,3.6,3.2,3.6
				C179.8,23.2,181.2,22.3,181.2,20.8z"/>
			<path class="st2" d="M186.5,23.5l2.3-2.2c1.1,1.3,2.4,2.1,4.2,2.1c1.8,0,2.5-0.7,2.5-1.7c0-0.9-0.5-1.4-1.9-1.6l-1.5-0.2
				c-3.3-0.4-5.1-1.8-5.1-4.6c0-2.9,2.3-4.8,5.8-4.8c3,0,4.5,0.9,5.9,2.4l-2.2,2.2c-0.9-0.9-2.2-1.6-3.6-1.6c-1.6,0-2.3,0.6-2.3,1.6
				c0,1,0.6,1.5,2,1.7l1.5,0.2c3.3,0.5,4.9,2,4.9,4.5c0,2.9-2.5,5-6.3,5C189.9,26.3,188,25.3,186.5,23.5z"/>
			<path class="st2" d="M207.1,32.1c-5.1,0-7.1-1.3-7.1-3.6c0-1.7,1-2.7,2.7-2.9v-0.3c-1.3-0.3-2-1.3-2-2.5c0-1.6,1.3-2.4,2.8-2.7
				V20c-1.8-0.8-2.8-2.4-2.8-4.4c0-3.1,2.2-5.2,6.3-5.2c0.9,0,1.9,0.1,2.7,0.4v-0.5c0-1.5,0.8-2.2,2.2-2.2h2.4v2.9H211v0.4
				c1.6,0.9,2.4,2.4,2.4,4.2c0,3.1-2.2,5.1-6.3,5.1c-0.9,0-1.7-0.1-2.3-0.3c-0.6,0.3-1.1,0.7-1.1,1.4c0,0.8,0.6,1.1,2,1.1h4.1
				c3.7,0,5.3,1.6,5.3,4.3C215.1,30.4,212.9,32.1,207.1,32.1z M209,26.1h-5.2c-0.6,0.4-0.8,1-0.8,1.6c0,1.2,0.9,1.9,3.2,1.9h1.9
				c2.4,0,3.5-0.6,3.5-1.9C211.6,26.7,210.9,26.1,209,26.1z M209.8,15.8v-0.5c0-1.5-1-2.3-2.7-2.3c-1.8,0-2.7,0.8-2.7,2.3v0.5
				c0,1.5,1,2.3,2.7,2.3C208.9,18.1,209.8,17.3,209.8,15.8z"/>
			<path class="st2" d="M225.8,23.4h-0.1c-0.5,1.5-1.7,2.9-4.3,2.9c-3.1,0-4.9-2.2-4.9-5.9v-9.6h3.7V20c0,2.1,0.8,3.2,2.6,3.2
				c1.5,0,3-0.8,3-2.4V10.8h3.7V26h-3.7V23.4z"/>
			<path class="st2" d="M232.4,6.7V6.1c0-1.1,0.6-1.9,2.2-1.9c1.5,0,2.2,0.8,2.2,1.9v0.6c0,1.1-0.7,1.9-2.2,1.9
				C233,8.5,232.4,7.8,232.4,6.7z M232.7,10.8h3.7V26h-3.7V10.8z"/>
			<path class="st2" d="M249.4,23.4h-0.1c-0.6,1.7-2.2,2.9-4.2,2.9c-3.8,0-5.9-2.9-5.9-8c0-5.1,2.1-7.9,5.9-7.9c2,0,3.7,1.1,4.2,2.9
				h0.1V4.4h3.7V26h-3.7V23.4z M249.4,20.8v-4.8c0-1.5-1.4-2.4-3.1-2.4c-1.9,0-3.2,1.4-3.2,3.6v2.6c0,2.2,1.3,3.6,3.2,3.6
				C248.1,23.2,249.4,22.3,249.4,20.8z"/>
			<path class="st2" d="M255.3,18.3c0-4.8,2.6-7.9,7.1-7.9c4.8,0,6.9,3.5,6.9,7.7v1.2h-10.1v0.4c0,2.2,1.3,3.7,3.7,3.7
				c1.8,0,2.9-0.9,3.9-2.1l2,2.2c-1.3,1.7-3.5,2.8-6.3,2.8C258,26.3,255.3,23.2,255.3,18.3z M259.2,16.8V17h6.2v-0.3
				c0-2.1-1.1-3.5-3-3.5C260.4,13.2,259.2,14.7,259.2,16.8z"/>
			<path class="st2" d="M271.3,26V10.8h3.7v2.5h0.1c0.6-1.6,1.9-2.9,4.3-2.9c3.1,0,4.9,2.2,4.9,5.9V26h-3.7v-9.2
				c0-2.2-0.7-3.3-2.5-3.3c-1.5,0-3,0.8-3,2.4V26H271.3z"/>
		</g>
	</g>
</g>
<g id="CAPS" class="st3">
	<text transform="matrix(1 0 0 1 -614.9476 79.0703)" class="st4 st5 st6">VIRKSOMHEDSGUIDEN</text>
	<g id="Lag_3_kopi" class="st4">
		<g>
			<path class="st7" d="M-699.4-50.6c9.9,0,17.9,8.5,17.9,19c0,10.5-8,19-17.9,19c-9.9,0-17.9-8.5-17.9-19
				C-717.3-42.1-709.3-50.6-699.4-50.6"/>
			<path class="st7" d="M-740.9,20.6c0,10.5-8,18.9-17.9,18.9s-17.9-8.5-17.9-18.9c0-10.4,8-18.9,17.9-18.9
				C-748.9,1.6-740.9,10.1-740.9,20.6"/>
			<path class="st7" d="M-681.2,15.3c0,10.7-8.2,19.3-18.3,19.3c-10.1,0-18.3-8.6-18.3-19.3c0-10.7,8.2-19.4,18.3-19.4
				C-689.4-4.1-681.2,4.6-681.2,15.3"/>
			<path class="st7" d="M-622,20.4c0,10.7-8.2,19.4-18.4,19.4c-10.1,0-18.4-8.7-18.4-19.4c0-10.7,8.2-19.4,18.4-19.4
				C-630.2,1-622,9.7-622,20.4"/>
			<path class="st7" d="M-681.2,60.6c0,10.7-8.2,19.4-18.3,19.4c-10.1,0-18.3-8.7-18.3-19.4c0-10.7,8.2-19.4,18.3-19.4
				C-689.4,41.3-681.2,49.9-681.2,60.6"/>
			<path class="st7" d="M-636.6,63.3c0,10.9-8.3,19.6-18.6,19.6c-10.2,0-18.6-8.8-18.6-19.6c0-10.8,8.3-19.6,18.6-19.6
				C-644.9,43.7-636.6,52.5-636.6,63.3"/>
			<path class="st7" d="M-743.8,44.5c9.8,0,17.8,8.4,17.8,18.8c0,10.4-8,18.8-17.8,18.8c-9.8,0-17.8-8.4-17.8-18.8
				C-761.6,52.9-753.6,44.5-743.8,44.5"/>
		</g>
	</g>
</g>
</svg>
